<?xml version="1.0"?>
<svg version="1.1" viewBox="0 0 1000 600" xmlns:xlink="http://www.w3.org/1999/xlink" xmlns="http://www.w3.org/2000/svg">
<g>
<polyline fill="none" points="0.00,510.65 1.25,511.63 2.50,512.60 3.75,513.58 5.01,514.54 6.26,515.49 7.51,516.42 8.76,517.33 10.01,518.20 11.26,519.04 12.52,519.83 13.77,520.58 15.02,521.28 16.27,521.93 17.52,522.51 18.77,523.03 20.03,523.48 21.28,523.87 22.53,524.17 23.78,524.41 25.03,524.56 26.28,524.63 27.53,524.62 28.79,524.53 30.04,524.35 31.29,524.09 32.54,523.74 33.79,523.31 35.04,522.80 36.30,522.21 37.55,521.54 38.80,520.79 40.05,519.97 41.30,519.08 42.55,518.12 43.80,517.09 45.06,516.01 46.31,514.87 47.56,513.68 48.81,512.44 50.06,511.16 51.31,509.84 52.57,508.50 53.82,507.12 55.07,505.73 56.32,504.32 57.57,502.90 58.82,501.47 60.08,500.05 61.33,498.63 62.58,497.23 63.83,495.84 65.08,494.47 66.33,493.13 67.58,491.82 68.84,490.54 70.09,489.30 71.34,488.11 72.59,486.95 73.84,485.85 75.09,484.79 76.35,483.79 77.60,482.84 78.85,481.94 80.10,481.10 81.35,480.31 82.60,479.58 83.85,478.90 85.11,478.28 86.36,477.71 87.61,477.18 88.86,476.71 90.11,476.28 91.36,475.88 92.62,475.53 93.87,475.21 95.12,474.91 96.37,474.64 97.62,474.38 98.87,474.14 100.13,473.91 101.38,473.67 102.63,473.43 103.88,473.18 105.13,472.91 106.38,472.61 107.63,472.28 108.89,471.91 110.14,471.50 111.39,471.03 112.64,470.51 113.89,469.92 115.14,469.25 116.40,468.51 117.65,467.69 118.90,466.77 120.15,465.76 121.40,464.65 122.65,463.44 123.90,462.11 125.16,460.68 126.41,459.13 127.66,457.46 128.91,455.66 130.16,453.75 131.41,451.71 132.67,449.55 133.92,447.26 135.17,444.85 136.42,442.31 137.67,439.66 138.92,436.89 140.18,434.00 141.43,430.99 142.68,427.88 143.93,424.67 145.18,421.36 146.43,417.96 147.68,414.48 148.94,410.91 150.19,407.28 151.44,403.58 152.69,399.83 153.94,396.04 155.19,392.21 156.45,388.35 157.70,384.48 158.95,380.60 160.20,376.73 161.45,372.87 162.70,369.04 163.95,365.25 165.21,361.50 166.46,357.81 167.71,354.19 168.96,350.65 170.21,347.20 171.46,343.85 172.72,340.61 173.97,337.49 175.22,334.50 176.47,331.65 177.72,328.95 178.97,326.40 180.23,324.01 181.48,321.79 182.73,319.74 183.98,317.88 185.23,316.20 186.48,314.71 187.73,313.41 188.99,312.31 190.24,311.41 191.49,310.71 192.74,310.20 193.99,309.90 195.24,309.79 196.50,309.87 197.75,310.15 199.00,310.62 200.25,311.27 201.50,312.10 202.75,313.10 204.01,314.27 205.26,315.59 206.51,317.06 207.76,318.67 209.01,320.41 210.26,322.27 211.51,324.24 212.77,326.31 214.02,328.46 215.27,330.68 216.52,332.97 217.77,335.30 219.02,337.66 220.28,340.04 221.53,342.43 222.78,344.80 224.03,347.16 225.28,349.48 226.53,351.75 227.78,353.95 229.04,356.08 230.29,358.11 231.54,360.04 232.79,361.86 234.04,363.54 235.29,365.09 236.55,366.48 237.80,367.71 239.05,368.76 240.30,369.64 241.55,370.33 242.80,370.81 244.06,371.10 245.31,371.17 246.56,371.03 247.81,370.67 249.06,370.09 250.31,369.28 251.56,368.25 252.82,366.99 254.07,365.51 255.32,363.80 256.57,361.88 257.82,359.74 259.07,357.39 260.33,354.83 261.58,352.08 262.83,349.13 264.08,346.01 265.33,342.72 266.58,339.26 267.83,335.66 269.09,331.93 270.34,328.07 271.59,324.10 272.84,320.04 274.09,315.90 275.34,311.69 276.60,307.44 277.85,303.16 279.10,298.86 280.35,294.57 281.60,290.30 282.85,286.07 284.11,281.89 285.36,277.79 286.61,273.78 287.86,269.88 289.11,266.11 290.36,262.47 291.61,259.00 292.87,255.71 294.12,252.60 295.37,249.70 296.62,247.03 297.87,244.58 299.12,242.39 300.38,240.45 301.63,238.79 302.88,237.40 304.13,236.31 305.38,235.52 306.63,235.03 307.88,234.86 309.14,235.00 310.39,235.46 311.64,236.25 312.89,237.37 314.14,238.81 315.39,240.58 316.65,242.67 317.90,245.08 319.15,247.81 320.40,250.85 321.65,254.20 322.90,257.84 324.16,261.77 325.41,265.97 326.66,270.44 327.91,275.17 329.16,280.13 330.41,285.33 331.66,290.73 332.92,296.33 334.17,302.11 335.42,308.06 336.67,314.15 337.92,320.36 339.17,326.69 340.43,333.10 341.68,339.58 342.93,346.12 344.18,352.68 345.43,359.25 346.68,365.82 347.93,372.35 349.19,378.84 350.44,385.25 351.69,391.58 352.94,397.80 354.19,403.89 355.44,409.84 356.70,415.63 357.95,421.25 359.20,426.67 360.45,431.88 361.70,436.87 362.95,441.62 364.21,446.13 365.46,450.37 366.71,454.35 367.96,458.05 369.21,461.46 370.46,464.57 371.71,467.39 372.97,469.90 374.22,472.11 375.47,474.00 376.72,475.59 377.97,476.87 379.22,477.84 380.48,478.50 381.73,478.86 382.98,478.93 384.23,478.71 385.48,478.20 386.73,477.43 387.98,476.39 389.24,475.10 390.49,473.56 391.74,471.80 392.99,469.83 394.24,467.65 395.49,465.29 396.75,462.76 398.00,460.08 399.25,457.26 400.50,454.33 401.75,451.29 403.00,448.17 404.26,444.98 405.51,441.75 406.76,438.48 408.01,435.21 409.26,431.95 410.51,428.71 411.76,425.52 413.02,422.39 414.27,419.34 415.52,416.38 416.77,413.54 418.02,410.82 419.27,408.25 420.53,405.83 421.78,403.59 423.03,401.53 424.28,399.66 425.53,397.99 426.78,396.54 428.04,395.32 429.29,394.32 430.54,393.56 431.79,393.05 433.04,392.78 434.29,392.76 435.54,393.00 436.80,393.49 438.05,394.23 439.30,395.22 440.55,396.46 441.80,397.95 443.05,399.67 444.31,401.63 445.56,403.82 446.81,406.23 448.06,408.84 449.31,411.66 450.56,414.67 451.81,417.86 453.07,421.21 454.32,424.72 455.57,428.37 456.82,432.14 458.07,436.02 459.32,440.00 460.58,444.06 461.83,448.19 463.08,452.36 464.33,456.57 465.58,460.79 466.83,465.01 468.09,469.22 469.34,473.39 470.59,477.52 471.84,481.58 473.09,485.57 474.34,489.46 475.59,493.25 476.85,496.92 478.10,500.45 479.35,503.84 480.60,507.07 481.85,510.13 483.10,513.02 484.36,515.72 485.61,518.22 486.86,520.52 488.11,522.62 489.36,524.50 490.61,526.16 491.86,527.61 493.12,528.83 494.37,529.83 495.62,530.61 496.87,531.16 498.12,531.49 499.37,531.61 500.63,531.51 501.88,531.21 503.13,530.71 504.38,530.01 505.63,529.12 506.88,528.06 508.14,526.82 509.39,525.43 510.64,523.89 511.89,522.21 513.14,520.41 514.39,518.50 515.64,516.49 516.90,514.39 518.15,512.22 519.40,509.99 520.65,507.71 521.90,505.40 523.15,503.08 524.41,500.75 525.66,498.43 526.91,496.13 528.16,493.86 529.41,491.65 530.66,489.50 531.91,487.41 533.17,485.42 534.42,483.51 535.67,481.71 536.92,480.02 538.17,478.45 539.42,477.01 540.68,475.70 541.93,474.53 543.18,473.50 544.43,472.62 545.68,471.90 546.93,471.32 548.19,470.89 549.44,470.62 550.69,470.49 551.94,470.51 553.19,470.68 554.44,470.98 555.69,471.41 556.95,471.97 558.20,472.64 559.45,473.42 560.70,474.30 561.95,475.27 563.20,476.31 564.46,477.42 565.71,478.58 566.96,479.77 568.21,480.99 569.46,482.22 570.71,483.44 571.96,484.64 573.22,485.80 574.47,486.91 575.72,487.95 576.97,488.90 578.22,489.76 579.47,490.49 580.73,491.10 581.98,491.55 583.23,491.85 584.48,491.96 585.73,491.89 586.98,491.61 588.24,491.11 589.49,490.39 590.74,489.42 591.99,488.21 593.24,486.74 594.49,485.00 595.74,482.99 597.00,480.70 598.25,478.12 599.50,475.26 600.75,472.11 602.00,468.67 603.25,464.94 604.51,460.93 605.76,456.63 607.01,452.05 608.26,447.20 609.51,442.09 610.76,436.71 612.02,431.10 613.27,425.25 614.52,419.18 615.77,412.90 617.02,406.43 618.27,399.78 619.52,392.98 620.78,386.03 622.03,378.97 623.28,371.81 624.53,364.57 625.78,357.27 627.03,349.95 628.29,342.61 629.54,335.28 630.79,328.00 632.04,320.77 633.29,313.63 634.54,306.61 635.79,299.72 637.05,292.99 638.30,286.44 639.55,280.10 640.80,274.00 642.05,268.15 643.30,262.57 644.56,257.30 645.81,252.34 647.06,247.72 648.31,243.46 649.56,239.57 650.81,236.07 652.07,232.97 653.32,230.29 654.57,228.04 655.82,226.23 657.07,224.87 658.32,223.97 659.57,223.52 660.83,223.53 662.08,224.01 663.33,224.96 664.58,226.37 665.83,228.23 667.08,230.55 668.34,233.32 669.59,236.52 670.84,240.14 672.09,244.17 673.34,248.60 674.59,253.41 675.84,258.58 677.10,264.09 678.35,269.92 679.60,276.04 680.85,282.43 682.10,289.07 683.35,295.93 684.61,302.97 685.86,310.18 687.11,317.52 688.36,324.95 689.61,332.45 690.86,339.99 692.12,347.52 693.37,355.03 694.62,362.46 695.87,369.80 697.12,377.01 698.37,384.05 699.62,390.90 700.88,397.51 702.13,403.86 703.38,409.91 704.63,415.64 705.88,421.02 707.13,426.01 708.39,430.60 709.64,434.75 710.89,438.44 712.14,441.65 713.39,444.36 714.64,446.55 715.89,448.20 717.15,449.30 718.40,449.83 719.65,449.78 720.90,449.14 722.15,447.92 723.40,446.09 724.66,443.66 725.91,440.64 727.16,437.01 728.41,432.80 729.66,427.99 730.91,422.62 732.17,416.67 733.42,410.18 734.67,403.16 735.92,395.62 737.17,387.59 738.42,379.08 739.67,370.13 740.93,360.76 742.18,351.00 743.43,340.88 744.68,330.44 745.93,319.69 747.18,308.69 748.44,297.47 749.69,286.06 750.94,274.51 752.19,262.84 753.44,251.12 754.69,239.36 755.94,227.62 757.20,215.93 758.45,204.35 759.70,192.90 760.95,181.63 762.20,170.59 763.45,159.81 764.71,149.33 765.96,139.19 767.21,129.44 768.46,120.10 769.71,111.21 770.96,102.81 772.22,94.93 773.47,87.59 774.72,80.84 775.97,74.70 777.22,69.19 778.47,64.33 779.72,60.16 780.98,56.68 782.23,53.91 783.48,51.86 784.73,50.56 785.98,50.00 787.23,50.19 788.49,51.14 789.74,52.85 790.99,55.31 792.24,58.52 793.49,62.48 794.74,67.17 795.99,72.58 797.25,78.69 798.50,85.50 799.75,92.97 801.00,101.09 802.25,109.83 803.50,119.16 804.76,129.06 806.01,139.49 807.26,150.42 808.51,161.81 809.76,173.64 811.01,185.86 812.27,198.42 813.52,211.30 814.77,224.44 816.02,237.81 817.27,251.37 818.52,265.05 819.77,278.84 821.03,292.66 822.28,306.49 823.53,320.28 824.78,333.98 826.03,347.55 827.28,360.94 828.54,374.11 829.79,387.02 831.04,399.62 832.29,411.88 833.54,423.76 834.79,435.22 836.05,446.22 837.30,456.73 838.55,466.72 839.80,476.16 841.05,485.01 842.30,493.26 843.55,500.88 844.81,507.85 846.06,514.15 847.31,519.76 848.56,524.68 849.81,528.88 851.06,532.37 852.32,535.13 853.57,537.16 854.82,538.47 856.07,539.05 857.32,538.91 858.57,538.06 859.82,536.52 861.08,534.28 862.33,531.37 863.58,527.81 864.83,523.61 866.08,518.80 867.33,513.41 868.59,507.45 869.84,500.97 871.09,493.99 872.34,486.54 873.59,478.66 874.84,470.38 876.10,461.75 877.35,452.79 878.60,443.55 879.85,434.06 881.10,424.38 882.35,414.53 883.60,404.57 884.86,394.53 886.11,384.46 887.36,374.39 888.61,364.37 889.86,354.44 891.11,344.64 892.37,335.01 893.62,325.59 894.87,316.42 896.12,307.53 897.37,298.95 898.62,290.74 899.87,282.90 901.13,275.48 902.38,268.51 903.63,262.00 904.88,255.99 906.13,250.50 907.38,245.55 908.64,241.16 909.89,237.34 911.14,234.10 912.39,231.46 913.64,229.43 914.89,228.02 916.15,227.21 917.40,227.03 918.65,227.46 919.90,228.51 921.15,230.17 922.40,232.42 923.65,235.26 924.91,238.68 926.16,242.66 927.41,247.18 928.66,252.23 929.91,257.78 931.16,263.81 932.42,270.29 933.67,277.21 934.92,284.53 936.17,292.22 937.42,300.25 938.67,308.59 939.92,317.21 941.18,326.08 942.43,335.15 943.68,344.41 944.93,353.80 946.18,363.30 947.43,372.87 948.69,382.47 949.94,392.08 951.19,401.65 952.44,411.16 953.69,420.56 954.94,429.82 956.20,438.92 957.45,447.82 958.70,456.49 959.95,464.91 961.20,473.04 962.45,480.86 963.70,488.35 964.96,495.48 966.21,502.23 967.46,508.59 968.71,514.53 969.96,520.04 971.21,525.11 972.47,529.73 973.72,533.88 974.97,537.57 976.22,540.77 977.47,543.50 978.72,545.75 979.97,547.52 981.23,548.82 982.48,549.64 983.73,550.00 984.98,549.90 986.23,549.36 987.48,548.39 988.74,547.00 989.99,545.21 991.24,543.03 992.49,540.48 993.74,537.59 994.99,534.37 996.25,530.85 997.50,527.04 998.75,522.98 1000.00,518.69" stroke-dasharray="3.6 3.6" stroke-width="3.6" stroke="#aaa" />
</g>
</svg>