<?xml version="1.0"?>
<svg version="1.1" viewBox="0 0 1000 600" xmlns:xlink="http://www.w3.org/1999/xlink" xmlns="http://www.w3.org/2000/svg">
<g>
<polyline fill="none" points="0.00,231.00 1.25,261.80 2.50,293.17 3.75,324.32 5.01,354.50 6.26,382.95 7.51,408.98 8.76,431.96 10.01,451.34 11.26,466.67 12.52,477.59 13.77,483.85 15.02,485.32 16.27,482.01 17.52,474.02 18.77,461.58 20.03,445.03 21.28,424.82 22.53,401.46 23.78,375.57 25.03,347.81 26.28,318.91 27.53,289.60 28.79,260.62 30.04,232.73 31.29,206.64 32.54,183.00 33.79,162.43 35.04,145.44 36.30,132.49 37.55,123.90 38.80,119.90 40.05,120.61 41.30,126.01 42.55,135.99 43.80,150.31 45.06,168.61 46.31,190.46 47.56,215.31 48.81,242.55 50.06,271.51 51.31,301.47 52.57,331.67 53.82,361.36 55.07,389.79 56.32,416.24 57.57,440.04 58.82,460.58 60.08,477.31 61.33,489.81 62.58,497.71 63.83,500.80 65.08,498.95 66.33,492.17 67.58,480.59 68.84,464.44 70.09,444.08 71.34,419.98 72.59,392.67 73.84,362.80 75.09,331.06 76.35,298.21 77.60,265.01 78.85,232.26 80.10,200.75 81.35,171.23 82.60,144.44 83.85,121.01 85.11,101.55 86.36,86.53 87.61,76.34 88.86,71.27 90.11,71.47 91.36,76.98 92.62,87.70 93.87,103.42 95.12,123.82 96.37,148.45 97.62,176.77 98.87,208.15 100.13,241.89 101.38,277.21 102.63,313.33 103.88,349.41 105.13,384.63 106.38,418.18 107.63,449.28 108.89,477.22 110.14,501.35 111.39,521.10 112.64,536.01 113.89,545.72 115.14,550.00 116.40,548.74 117.65,541.94 118.90,529.76 120.15,512.45 121.40,490.39 122.65,464.08 123.90,434.10 125.16,401.11 126.41,365.87 127.66,329.16 128.91,291.80 130.16,254.63 131.41,218.48 132.67,184.15 133.92,152.43 135.17,124.00 136.42,99.50 137.67,79.48 138.92,64.35 140.18,54.46 141.43,50.00 142.68,51.06 143.93,57.58 145.18,69.42 146.43,86.26 147.68,107.73 148.94,133.31 150.19,162.41 151.44,194.36 152.69,228.43 153.94,263.84 155.19,299.79 156.45,335.47 157.70,370.09 158.95,402.86 160.20,433.08 161.45,460.07 162.70,483.27 163.95,502.17 165.21,516.39 166.46,525.65 167.71,529.79 168.96,528.76 170.21,522.63 171.46,511.60 172.72,495.97 173.97,476.14 175.22,452.61 176.47,425.95 177.72,396.82 178.97,365.91 180.23,333.95 181.48,301.68 182.73,269.86 183.98,239.22 185.23,210.45 186.48,184.19 187.73,161.02 188.99,141.44 190.24,125.86 191.49,114.60 192.74,107.86 193.99,105.73 195.24,108.22 196.50,115.18 197.75,126.40 199.00,141.56 200.25,160.23 201.50,181.92 202.75,206.07 204.01,232.07 205.26,259.25 206.51,286.96 207.76,314.50 209.01,341.22 210.26,366.47 211.51,389.65 212.77,410.22 214.02,427.71 215.27,441.73 216.52,451.96 217.77,458.22 219.02,460.38 220.28,458.44 221.53,452.50 222.78,442.75 224.03,429.47 225.28,413.04 226.53,393.91 227.78,372.58 229.04,349.62 230.29,325.63 231.54,301.21 232.79,277.01 234.04,253.64 235.29,231.69 236.55,211.72 237.80,194.22 239.05,179.64 240.30,168.34 241.55,160.59 242.80,156.59 244.06,156.43 245.31,160.09 246.56,167.49 247.81,178.43 249.06,192.62 250.31,209.70 251.56,229.24 252.82,250.72 254.07,273.62 255.32,297.33 256.57,321.27 257.82,344.80 259.07,367.35 260.33,388.31 261.58,407.16 262.83,423.41 264.08,436.62 265.33,446.46 266.58,452.64 267.83,454.99 269.09,453.42 270.34,447.94 271.59,438.67 272.84,425.79 274.09,409.61 275.34,390.49 276.60,368.89 277.85,345.30 279.10,320.29 280.35,294.46 281.60,268.43 282.85,242.82 284.11,218.27 285.36,195.38 286.61,174.70 287.86,156.76 289.11,142.00 290.36,130.81 291.61,123.49 292.87,120.24 294.12,121.18 295.37,126.32 296.62,135.58 297.87,148.77 299.12,165.62 300.38,185.77 301.63,208.77 302.88,234.13 304.13,261.26 305.38,289.56 306.63,318.39 307.88,347.09 309.14,375.01 310.39,401.50 311.64,425.95 312.89,447.80 314.14,466.53 315.39,481.70 316.65,492.96 317.90,500.02 319.15,502.72 320.40,500.97 321.65,494.79 322.90,484.30 324.16,469.72 325.41,451.36 326.66,429.62 327.91,404.97 329.16,377.94 330.41,349.14 331.66,319.20 332.92,288.77 334.17,258.52 335.42,229.12 336.67,201.22 337.92,175.43 339.17,152.31 340.43,132.38 341.68,116.05 342.93,103.70 344.18,95.58 345.43,91.85 346.68,92.60 347.93,97.80 349.19,107.31 350.44,120.92 351.69,138.32 352.94,159.11 354.19,182.82 355.44,208.93 356.70,236.86 357.95,265.99 359.20,295.68 360.45,325.27 361.70,354.13 362.95,381.64 364.21,407.20 365.46,430.27 366.71,450.38 367.96,467.09 369.21,480.09 370.46,489.12 371.71,494.01 372.97,494.71 374.22,491.24 375.47,483.70 376.72,472.33 377.97,457.39 379.22,439.26 380.48,418.38 381.73,395.24 382.98,370.36 384.23,344.33 385.48,317.72 386.73,291.14 387.98,265.17 389.24,240.38 390.49,217.30 391.74,196.42 392.99,178.16 394.24,162.91 395.49,150.95 396.75,142.49 398.00,137.68 399.25,136.57 400.50,139.10 401.75,145.18 403.00,154.60 404.26,167.09 405.51,182.32 406.76,199.88 408.01,219.34 409.26,240.21 410.51,261.98 411.76,284.15 413.02,306.18 414.27,327.58 415.52,347.84 416.77,366.53 418.02,383.22 419.27,397.57 420.53,409.28 421.78,418.13 423.03,423.95 424.28,426.67 425.53,426.27 426.78,422.84 428.04,416.50 429.29,407.47 430.54,396.01 431.79,382.45 433.04,367.17 434.29,350.56 435.54,333.07 436.80,315.15 438.05,297.24 439.30,279.80 440.55,263.25 441.80,248.01 443.05,234.44 444.31,222.86 445.56,213.53 446.81,206.67 448.06,202.42 449.31,200.86 450.56,201.99 451.81,205.77 453.07,212.06 454.32,220.68 455.57,231.39 456.82,243.88 458.07,257.83 459.32,272.86 460.58,288.57 461.83,304.54 463.08,320.37 464.33,335.62 465.58,349.92 466.83,362.87 468.09,374.15 469.34,383.46 470.59,390.54 471.84,395.22 473.09,397.36 474.34,396.89 475.59,393.82 476.85,388.20 478.10,380.18 479.35,369.92 480.60,357.69 481.85,343.78 483.10,328.52 484.36,312.29 485.61,295.48 486.86,278.53 488.11,261.83 489.36,245.83 490.61,230.91 491.86,217.46 493.12,205.83 494.37,196.33 495.62,189.21 496.87,184.67 498.12,182.86 499.37,183.86 500.63,187.67 501.88,194.24 503.13,203.45 504.38,215.12 505.63,229.01 506.88,244.81 508.14,262.18 509.39,280.74 510.64,300.07 511.89,319.73 513.14,339.29 514.39,358.28 515.64,376.27 516.90,392.84 518.15,407.60 519.40,420.19 520.65,430.31 521.90,437.70 523.15,442.16 524.41,443.58 525.66,441.88 526.91,437.07 528.16,429.24 529.41,418.51 530.66,405.11 531.91,389.29 533.17,371.40 534.42,351.79 535.67,330.88 536.92,309.11 538.17,286.95 539.42,264.86 540.68,243.34 541.93,222.84 543.18,203.80 544.43,186.64 545.68,171.74 546.93,159.43 548.19,149.97 549.44,143.59 550.69,140.43 551.94,140.56 553.19,144.00 554.44,150.68 555.69,160.48 556.95,173.19 558.20,188.55 559.45,206.24 560.70,225.91 561.95,247.13 563.20,269.46 564.46,292.45 565.71,315.61 566.96,338.46 568.21,360.52 569.46,381.33 570.71,400.47 571.96,417.55 573.22,432.20 574.47,444.14 575.72,453.12 576.97,458.97 578.22,461.57 579.47,460.90 580.73,456.96 581.98,449.87 583.23,439.79 584.48,426.93 585.73,411.58 586.98,394.07 588.24,374.78 589.49,354.13 590.74,332.54 591.99,310.47 593.24,288.39 594.49,266.74 595.74,245.98 597.00,226.53 598.25,208.78 599.50,193.08 600.75,179.74 602.00,169.01 603.25,161.10 604.51,156.12 605.76,154.16 607.01,155.21 608.26,159.23 609.51,166.09 610.76,175.61 612.02,187.56 613.27,201.65 614.52,217.56 615.77,234.92 617.02,253.35 618.27,272.45 619.52,291.79 620.78,310.96 622.03,329.55 623.28,347.19 624.53,363.50 625.78,378.15 627.03,390.87 628.29,401.40 629.54,409.56 630.79,415.21 632.04,418.27 633.29,418.72 634.54,416.61 635.79,412.02 637.05,405.11 638.30,396.06 639.55,385.13 640.80,372.59 642.05,358.75 643.30,343.95 644.56,328.55 645.81,312.91 647.06,297.38 648.31,282.33 649.56,268.08 650.81,254.95 652.07,243.22 653.32,233.14 654.57,224.92 655.82,218.70 657.07,214.59 658.32,212.66 659.57,212.91 660.83,215.28 662.08,219.69 663.33,225.98 664.58,233.97 665.83,243.43 667.08,254.11 668.34,265.71 669.59,277.93 670.84,290.46 672.09,302.97 673.34,315.15 674.59,326.69 675.84,337.30 677.10,346.73 678.35,354.74 679.60,361.13 680.85,365.76 682.10,368.52 683.35,369.35 684.61,368.23 685.86,365.21 687.11,360.38 688.36,353.86 689.61,345.83 690.86,336.49 692.12,326.11 693.37,314.94 694.62,303.29 695.87,291.46 697.12,279.75 698.37,268.49 699.62,257.97 700.88,248.47 702.13,240.26 703.38,233.56 704.63,228.58 705.88,225.45 707.13,224.29 708.39,225.15 709.64,228.05 710.89,232.95 712.14,239.75 713.39,248.32 714.64,258.46 715.89,269.96 717.15,282.56 718.40,295.95 719.65,309.82 720.90,323.85 722.15,337.69 723.40,350.99 724.66,363.43 725.91,374.68 727.16,384.44 728.41,392.46 729.66,398.51 730.91,402.39 732.17,403.97 733.42,403.17 734.67,399.95 735.92,394.33 737.17,386.40 738.42,376.29 739.67,364.19 740.93,350.33 742.18,334.99 743.43,318.50 744.68,301.19 745.93,283.46 747.18,265.68 748.44,248.26 749.69,231.58 750.94,216.04 752.19,202.00 753.44,189.79 754.69,179.73 755.94,172.06 757.20,167.01 758.45,164.71 759.70,165.27 760.95,168.73 762.20,175.05 763.45,184.14 764.71,195.86 765.96,209.97 767.21,226.23 768.46,244.30 769.71,263.83 770.96,284.41 772.22,305.63 773.47,327.04 774.72,348.19 775.97,368.62 777.22,387.88 778.47,405.57 779.72,421.29 780.98,434.68 782.23,445.43 783.48,453.30 784.73,458.09 785.98,459.67 787.23,457.98 788.49,453.02 789.74,444.88 790.99,433.70 792.24,419.69 793.49,403.12 794.74,384.33 795.99,363.69 797.25,341.63 798.50,318.60 799.75,295.07 801.00,271.54 802.25,248.50 803.50,226.44 804.76,205.82 806.01,187.07 807.26,170.60 808.51,156.75 809.76,145.83 811.01,138.07 812.27,133.63 813.52,132.62 814.77,135.06 816.02,140.90 817.27,150.02 818.52,162.22 819.77,177.26 821.03,194.80 822.28,214.49 823.53,235.89 824.78,258.56 826.03,282.02 827.28,305.75 828.54,329.27 829.79,352.08 831.04,373.68 832.29,393.63 833.54,411.51 834.79,426.94 836.05,439.62 837.30,449.27 838.55,455.71 839.80,458.82 841.05,458.56 842.30,454.94 843.55,448.08 844.81,438.14 846.06,425.36 847.31,410.03 848.56,392.52 849.81,373.23 851.06,352.58 852.32,331.05 853.57,309.12 854.82,287.28 856.07,266.00 857.32,245.76 858.57,226.99 859.82,210.10 861.08,195.45 862.33,183.34 863.58,174.03 864.83,167.68 866.08,164.41 867.33,164.26 868.59,167.21 869.84,173.13 871.09,181.88 872.34,193.20 873.59,206.81 874.84,222.36 876.10,239.46 877.35,257.70 878.60,276.64 879.85,295.81 881.10,314.75 882.35,333.03 883.60,350.19 884.86,365.86 886.11,379.65 887.36,391.27 888.61,400.44 889.86,406.97 891.11,410.73 892.37,411.65 893.62,409.73 894.87,405.04 896.12,397.73 897.37,388.01 898.62,376.13 899.87,362.42 901.13,347.23 902.38,330.96 903.63,314.03 904.88,296.88 906.13,279.95 907.38,263.68 908.64,248.49 909.89,234.76 911.14,222.86 912.39,213.10 913.64,205.72 914.89,200.93 916.15,198.86 917.40,199.56 918.65,203.03 919.90,209.20 921.15,217.90 922.40,228.94 923.65,242.04 924.91,256.86 926.16,273.05 927.41,290.18 928.66,307.81 929.91,325.50 931.16,342.79 932.42,359.22 933.67,374.34 934.92,387.77 936.17,399.12 937.42,408.07 938.67,414.36 939.92,417.79 941.18,418.22 942.43,415.60 943.68,409.93 944.93,401.32 946.18,389.93 947.43,375.99 948.69,359.81 949.94,341.75 951.19,322.23 952.44,301.70 953.69,280.64 954.94,259.58 956.20,239.01 957.45,219.45 958.70,201.40 959.95,185.31 961.20,171.62 962.45,160.70 963.70,152.85 964.96,148.33 966.21,147.29 967.46,149.84 968.71,155.97 969.96,165.60 971.21,178.57 972.47,194.63 973.72,213.46 974.97,234.68 976.22,257.82 977.47,282.39 978.72,307.84 979.97,333.59 981.23,359.08 982.48,383.69 983.73,406.87 984.98,428.06 986.23,446.74 987.48,462.47 988.74,474.83 989.99,483.51 991.24,488.26 992.49,488.91 993.74,485.41 994.99,477.78 996.25,466.13 997.50,450.69 998.75,431.74 1000.00,409.69" stroke-dasharray="3.6 3.6" stroke-width="3.6" stroke="#aaa" />
</g>
</svg>