<?xml version="1.0"?>
<svg version="1.1" viewBox="0 0 1000 600" xmlns:xlink="http://www.w3.org/1999/xlink" xmlns="http://www.w3.org/2000/svg">
<g>
<polyline fill="none" points="0.00,298.53 1.25,310.30 2.50,320.10 3.75,327.16 5.01,331.04 6.26,331.59 7.51,329.03 8.76,323.83 10.01,316.74 11.26,308.60 12.52,300.33 13.77,292.80 15.02,286.70 16.27,282.54 17.52,280.57 18.77,280.73 20.03,282.75 21.28,286.11 22.53,290.19 23.78,294.28 25.03,297.71 26.28,299.95 27.53,300.64 28.79,299.66 30.04,297.12 31.29,293.40 32.54,289.04 33.79,284.73 35.04,281.18 36.30,279.07 37.55,278.94 38.80,281.09 40.05,285.59 41.30,292.19 42.55,300.39 43.80,309.44 45.06,318.41 46.31,326.32 47.56,332.22 48.81,335.30 50.06,334.97 51.31,330.96 52.57,323.37 53.82,312.65 55.07,299.58 56.32,285.25 57.57,270.89 58.82,257.84 60.08,247.35 61.33,240.51 62.58,238.12 63.83,240.58 65.08,247.88 66.33,259.59 67.58,274.85 68.84,292.47 70.09,311.00 71.34,328.91 72.59,344.66 73.84,356.88 75.09,364.49 76.35,366.77 77.60,363.44 78.85,354.69 80.10,341.18 81.35,323.93 82.60,304.31 83.85,283.86 85.11,264.18 86.36,246.83 87.61,233.15 88.86,224.21 90.11,220.66 91.36,222.78 92.62,230.36 93.87,242.81 95.12,259.17 96.37,278.21 97.62,298.52 98.87,318.64 100.13,337.11 101.38,352.66 102.63,364.22 103.88,371.04 105.13,372.69 106.38,369.10 107.63,360.56 108.89,347.67 110.14,331.30 111.39,312.53 112.64,292.60 113.89,272.77 115.14,254.33 116.40,238.46 117.65,226.18 118.90,218.33 120.15,215.47 121.40,217.86 122.65,225.47 123.90,237.93 125.16,254.58 126.41,274.46 127.66,296.39 128.91,319.00 130.16,340.81 131.41,360.34 132.67,376.16 133.92,387.04 135.17,392.01 136.42,390.45 137.67,382.18 138.92,367.46 140.18,347.04 141.43,322.13 142.68,294.33 143.93,265.56 145.18,237.88 146.43,213.43 147.68,194.17 148.94,181.81 150.19,177.58 151.44,182.15 152.69,195.56 153.94,217.12 155.19,245.50 156.45,278.76 157.70,314.49 158.95,349.98 160.20,382.43 161.45,409.18 162.70,427.94 163.95,436.97 165.21,435.25 166.46,422.62 167.71,399.76 168.96,368.23 170.21,330.32 171.46,288.91 172.72,247.22 173.97,208.58 175.22,176.14 176.47,152.60 177.72,140.02 178.97,139.57 180.23,151.46 181.48,174.92 182.73,208.21 183.98,248.78 185.23,293.47 186.48,338.75 187.73,381.02 188.99,416.89 190.24,443.48 191.49,458.65 192.74,461.18 193.99,450.85 195.24,428.47 196.50,395.82 197.75,355.49 199.00,310.69 200.25,264.92 201.50,221.78 202.75,184.59 204.01,156.20 205.26,138.72 206.51,133.38 207.76,140.46 209.01,159.26 210.26,188.19 211.51,224.91 212.77,266.53 214.02,309.83 215.27,351.54 216.52,388.59 217.77,418.32 219.02,438.66 220.28,448.33 221.53,446.83 222.78,434.50 224.03,412.45 225.28,382.47 226.53,346.85 227.78,308.23 229.04,269.36 230.29,232.96 231.54,201.48 232.79,176.99 234.04,161.02 235.29,154.50 236.55,157.71 237.80,170.27 239.05,191.23 240.30,219.11 241.55,251.99 242.80,287.69 244.06,323.87 245.31,358.17 246.56,388.36 247.81,412.49 249.06,428.96 250.31,436.67 251.56,435.03 252.82,424.05 254.07,404.34 255.32,377.04 256.57,343.86 257.82,306.88 259.07,268.51 260.33,231.34 261.58,197.92 262.83,170.66 264.08,151.63 265.33,142.39 266.58,143.89 267.83,156.33 269.09,179.15 270.34,211.03 271.59,249.91 272.84,293.17 274.09,337.73 275.34,380.33 276.60,417.71 277.85,446.91 279.10,465.47 280.35,471.69 281.60,464.74 282.85,444.79 284.11,413.06 285.36,371.70 286.61,323.70 287.86,272.64 289.11,222.48 290.36,177.16 291.61,140.37 292.87,115.18 294.12,103.80 295.37,107.37 296.62,125.83 297.87,157.95 299.12,201.33 300.38,252.64 301.63,307.86 302.88,362.58 304.13,412.41 305.38,453.29 306.63,481.88 307.88,495.81 309.14,493.90 310.39,476.27 311.64,444.32 312.89,400.62 314.14,348.73 315.39,292.86 316.65,237.54 317.90,187.22 319.15,145.94 320.40,116.96 321.65,102.49 322.90,103.54 324.16,119.85 325.41,149.90 326.66,191.07 327.91,239.89 329.16,292.29 330.41,344.04 331.66,391.01 332.92,429.57 334.17,456.85 335.42,470.98 336.67,471.18 337.92,457.83 339.17,432.39 340.43,397.22 341.68,355.39 342.93,310.38 344.18,265.80 345.43,225.05 346.68,191.12 347.93,166.31 349.19,152.11 350.44,149.12 351.69,157.06 352.94,174.81 354.19,200.57 355.44,232.07 356.70,266.73 357.95,301.90 359.20,335.05 360.45,363.99 361.70,386.97 362.95,402.76 364.21,410.73 365.46,410.82 366.71,403.48 367.96,389.62 369.21,370.46 370.46,347.48 371.71,322.24 372.97,296.34 374.22,271.28 375.47,248.43 376.72,228.97 377.97,213.83 379.22,203.73 380.48,199.10 381.73,200.14 382.98,206.77 384.23,218.67 385.48,235.27 386.73,255.74 387.98,279.03 389.24,303.89 390.49,328.91 391.74,352.58 392.99,373.35 394.24,389.77 395.49,400.54 396.75,404.65 398.00,401.46 399.25,390.82 400.50,373.08 401.75,349.17 403.00,320.51 404.26,289.01 405.51,256.89 406.76,226.58 408.01,200.48 409.26,180.82 410.51,169.40 411.76,167.45 413.02,175.51 414.27,193.27 415.52,219.65 416.77,252.78 418.02,290.18 419.27,328.89 420.53,365.77 421.78,397.72 423.03,421.98 424.28,436.36 425.53,439.49 426.78,430.88 428.04,411.10 429.29,381.65 430.54,344.92 431.79,303.93 433.04,262.14 434.29,223.10 435.54,190.16 436.80,166.15 438.05,153.14 439.30,152.23 440.55,163.48 441.80,185.87 443.05,217.39 444.31,255.23 445.56,296.07 446.81,336.31 448.06,372.46 449.31,401.42 450.56,420.79 451.81,429.05 453.07,425.69 454.32,411.29 455.57,387.37 456.82,356.31 458.07,321.06 459.32,284.88 460.58,251.03 461.83,222.46 463.08,201.53 464.33,189.83 465.58,188.05 466.83,195.92 468.09,212.27 469.34,235.21 470.59,262.29 471.84,290.80 473.09,318.00 474.34,341.41 475.59,359.07 476.85,369.66 478.10,372.62 479.35,368.19 480.60,357.34 481.85,341.61 483.10,322.96 484.36,303.51 485.61,285.34 486.86,270.25 488.11,259.58 489.36,254.10 490.61,253.96 491.86,258.68 493.12,267.26 494.37,278.31 495.62,290.23 496.87,301.41 498.12,310.42 499.37,316.17 500.63,318.04 501.88,315.95 503.13,310.33 504.38,302.10 505.63,292.49 506.88,282.95 508.14,274.90 509.39,269.61 510.64,267.98 511.89,270.49 513.14,277.07 514.39,287.13 515.64,299.62 516.90,313.13 518.15,326.06 519.40,336.80 520.65,343.93 521.90,346.36 523.15,343.51 524.41,335.38 525.66,322.55 526.91,306.13 528.16,287.70 529.41,269.10 530.66,252.26 531.91,238.98 533.17,230.77 534.42,228.61 535.67,232.93 536.92,243.46 538.17,259.31 539.42,279.02 540.68,300.73 541.93,322.34 543.18,341.74 544.43,357.04 545.68,366.72 546.93,369.86 548.19,366.14 549.44,355.97 550.69,340.37 551.94,320.92 553.19,299.52 554.44,278.29 555.69,259.27 556.95,244.24 558.20,234.55 559.45,230.97 560.70,233.63 561.95,242.04 563.20,255.12 564.46,271.36 565.71,288.96 566.96,306.08 568.21,320.99 569.46,332.29 570.71,339.03 571.96,340.81 573.22,337.81 574.47,330.73 575.72,320.73 576.97,309.22 578.22,297.74 579.47,287.73 580.73,280.38 581.98,276.48 583.23,276.33 584.48,279.71 585.73,285.91 586.98,293.82 588.24,302.10 589.49,309.34 590.74,314.23 591.99,315.77 593.24,313.42 594.49,307.13 595.74,297.45 597.00,285.42 598.25,272.52 599.50,260.46 600.75,250.99 602.00,245.70 603.25,245.80 604.51,251.95 605.76,264.11 607.01,281.55 608.26,302.86 609.51,326.03 610.76,348.70 612.02,368.37 613.27,382.66 614.52,389.58 615.77,387.80 617.02,376.79 618.27,356.98 619.52,329.72 620.78,297.19 622.03,262.29 623.28,228.29 624.53,198.56 625.78,176.23 627.03,163.87 628.29,163.17 629.54,174.80 630.79,198.21 632.04,231.74 633.29,272.66 634.54,317.44 635.79,362.04 637.05,402.31 638.30,434.39 639.55,455.06 640.80,462.07 642.05,454.42 643.30,432.43 644.56,397.77 645.81,353.31 647.06,302.89 648.31,250.95 649.56,202.16 650.81,160.95 652.07,131.10 653.32,115.40 654.57,115.37 655.82,131.12 657.07,161.33 658.32,203.37 659.57,253.52 660.83,307.37 662.08,360.17 663.33,407.28 664.58,444.62 665.83,469.00 667.08,478.43 668.34,472.26 669.59,451.25 670.84,417.46 672.09,374.03 673.34,324.89 674.59,274.38 675.84,226.87 677.10,186.32 678.35,155.98 679.60,138.10 680.85,133.77 682.10,142.85 683.35,164.07 684.61,195.14 685.86,233.05 687.11,274.33 688.36,315.42 689.61,352.96 690.86,384.13 692.12,406.78 693.37,419.66 694.62,422.42 695.87,415.58 697.12,400.42 698.37,378.78 699.62,352.88 700.88,325.03 702.13,297.46 703.38,272.11 704.63,250.51 705.88,233.67 707.13,222.09 708.39,215.81 709.64,214.46 710.89,217.43 712.14,223.95 713.39,233.21 714.64,244.50 715.89,257.24 717.15,270.98 718.40,285.43 719.65,300.37 720.90,315.60 722.15,330.85 723.40,345.68 724.66,359.50 725.91,371.49 727.16,380.69 728.41,386.03 729.66,386.50 730.91,381.22 732.17,369.66 733.42,351.74 734.67,327.94 735.92,299.35 737.17,267.68 738.42,235.15 739.67,204.37 740.93,178.11 742.18,159.04 743.43,149.46 744.68,151.05 745.93,164.62 747.18,189.99 748.44,225.85 749.69,269.88 750.94,318.81 752.19,368.71 753.44,415.31 754.69,454.36 755.94,482.03 757.20,495.31 758.45,492.32 759.70,472.57 760.95,437.02 762.20,388.13 763.45,329.63 764.71,266.27 765.96,203.43 767.21,146.62 768.46,100.97 769.71,70.81 770.96,59.17 772.22,67.53 773.47,95.63 774.72,141.41 775.97,201.23 777.22,270.12 778.47,342.20 779.72,411.25 780.98,471.21 782.23,516.78 783.48,543.87 784.73,550.00 785.98,534.53 787.23,498.72 788.49,445.65 789.74,379.91 790.99,307.22 792.24,233.89 793.49,166.27 794.74,110.16 795.99,70.31 797.25,50.00 798.50,50.74 799.75,72.20 801.00,112.20 802.25,167.00 803.50,231.62 804.76,300.31 806.01,367.11 807.26,426.35 808.51,473.17 809.76,503.94 811.01,516.53 812.27,510.46 813.52,486.89 814.77,448.48 816.02,399.04 817.27,343.21 818.52,285.96 819.77,232.16 821.03,186.14 822.28,151.33 823.53,130.01 824.78,123.15 826.03,130.42 827.28,150.30 828.54,180.31 829.79,217.26 831.04,257.63 832.29,297.90 833.54,334.87 834.79,365.91 836.05,389.17 837.30,403.65 838.55,409.19 839.80,406.41 841.05,396.55 842.30,381.25 843.55,362.35 844.81,341.67 846.06,320.84 847.31,301.15 848.56,283.51 849.81,268.41 851.06,256.00 852.32,246.15 853.57,238.62 854.82,233.12 856.07,229.46 857.32,227.62 858.57,227.78 859.82,230.29 861.08,235.61 862.33,244.23 863.58,256.50 864.83,272.50 866.08,291.97 867.33,314.18 868.59,337.94 869.84,361.64 871.09,383.33 872.34,400.91 873.59,412.35 874.84,415.89 876.10,410.31 877.35,395.07 878.60,370.52 879.85,337.90 881.10,299.36 882.35,257.78 883.60,216.58 884.86,179.45 886.11,149.93 887.36,131.15 888.61,125.43 889.86,134.02 891.11,156.94 892.37,192.88 893.62,239.24 894.87,292.37 896.12,347.82 897.37,400.72 898.62,446.26 899.87,480.14 901.13,498.96 902.38,500.61 903.63,484.49 904.88,451.60 906.13,404.51 907.38,347.16 908.64,284.48 909.89,222.00 911.14,165.32 912.39,119.59 913.64,89.01 914.89,76.46 916.15,83.17 917.40,108.63 918.65,150.61 919.90,205.37 921.15,267.96 922.40,332.74 923.65,393.88 924.91,445.89 926.16,484.15 927.41,505.34 928.66,507.75 929.91,491.38 931.16,458.00 932.42,410.91 933.67,354.63 934.92,294.44 936.17,235.90 937.42,184.30 938.67,144.18 939.92,118.87 941.18,110.27 942.43,118.64 943.68,142.67 944.93,179.59 946.18,225.51 947.43,275.84 948.69,325.72 949.94,370.51 951.19,406.27 952.44,430.05 953.69,440.21 954.94,436.50 956.20,420.03 957.45,393.09 958.70,358.91 959.95,321.26 961.20,284.04 962.45,250.91 963.70,224.87 964.96,208.04 966.21,201.44 967.46,204.97 968.71,217.44 969.96,236.79 971.21,260.35 972.47,285.16 973.72,308.31 974.97,327.29 976.22,340.22 977.47,346.09 978.72,344.76 979.97,337.02 981.23,324.41 982.48,308.99 983.73,293.12 984.98,279.11 986.23,268.95 987.48,264.06 988.74,265.14 989.99,272.05 991.24,283.86 992.49,298.96 993.74,315.26 994.99,330.44 996.25,342.26 997.50,348.85 998.75,348.92 1000.00,341.97" stroke-dasharray="3.6 3.6" stroke-width="3.6" stroke="#aaa" />
</g>
</svg>